<svg xmlns="http://www.w3.org/2000/svg" xmlns:xlink="http://www.w3.org/1999/xlink" width="860" zoomAndPan="magnify" viewBox="0 0 645 262.499992" height="350" preserveAspectRatio="xMidYMid meet" version="1.0"><defs><clipPath id="f38cc05431"><path d="M 0.613281 0 L 644.386719 0 L 644.386719 262 L 0.613281 262 Z M 0.613281 0 " clip-rule="nonzero"/></clipPath><clipPath id="81af1c4476"><path d="M 0.613281 0 L 339.71875 0 L 339.71875 234 L 0.613281 234 Z M 0.613281 0 " clip-rule="nonzero"/></clipPath><clipPath id="36c118104a"><path d="M 0.613281 0 L 339.71875 0 L 339.71875 235 L 0.613281 235 Z M 0.613281 0 " clip-rule="nonzero"/></clipPath><clipPath id="15b58f0080"><path d="M 330.9375 0 L 644.386719 0 L 644.386719 233 L 330.9375 233 Z M 330.9375 0 " clip-rule="nonzero"/></clipPath><clipPath id="d02fde7d41"><path d="M 345.386719 233 L 644.386719 233 L 644.386719 262 L 345.386719 262 Z M 345.386719 233 " clip-rule="nonzero"/></clipPath><clipPath id="75c523bf14"><path d="M 345.386719 232.898438 L 644.386719 232.898438 L 644.386719 262 L 345.386719 262 Z M 345.386719 232.898438 " clip-rule="nonzero"/></clipPath><clipPath id="7c3d8ee16a"><path d="M 0.613281 236 L 339.71875 236 L 339.71875 262 L 0.613281 262 Z M 0.613281 236 " clip-rule="nonzero"/></clipPath><clipPath id="f811d8fabb"><path d="M 0.613281 235.800781 L 339.71875 235.800781 L 339.71875 262 L 0.613281 262 Z M 0.613281 235.800781 " clip-rule="nonzero"/></clipPath></defs><g clip-path="url(#f38cc05431)"><path fill="#ffffff" d="M 0.613281 0 L 644.386719 0 L 644.386719 262 L 0.613281 262 Z M 0.613281 0 " fill-opacity="1" fill-rule="nonzero"/><path fill="#ffffff" d="M 0.613281 0 L 644.386719 0 L 644.386719 262 L 0.613281 262 Z M 0.613281 0 " fill-opacity="1" fill-rule="nonzero"/></g><g clip-path="url(#81af1c4476)"><path fill="#000000" d="M 1.011719 0.792969 L 1.011719 233.554688 M 11.914062 0.792969 L 11.914062 233.554688 M 22.820312 0.792969 L 22.820312 233.554688 M 33.726562 0.792969 L 33.726562 233.554688 M 44.632812 0.792969 L 44.632812 233.554688 M 55.535156 0.792969 L 55.535156 233.554688 M 66.441406 0.792969 L 66.441406 233.554688 M 77.347656 0.792969 L 77.347656 233.554688 M 88.253906 0.792969 L 88.253906 233.554688 M 99.15625 0.792969 L 99.15625 233.554688 M 110.0625 0.792969 L 110.0625 233.554688 M 120.96875 0.792969 L 120.96875 233.554688 M 131.875 0.792969 L 131.875 233.554688 M 142.777344 0.792969 L 142.777344 233.554688 M 153.683594 0.792969 L 153.683594 233.554688 M 164.589844 0.792969 L 164.589844 233.554688 M 175.496094 0.792969 L 175.496094 233.554688 M 186.398438 0.792969 L 186.398438 233.554688 M 197.304688 0.792969 L 197.304688 233.554688 M 208.210938 0.792969 L 208.210938 233.554688 M 219.117188 0.792969 L 219.117188 233.554688 M 230.019531 0.792969 L 230.019531 233.554688 M 240.925781 0.792969 L 240.925781 233.554688 M 251.832031 0.792969 L 251.832031 233.554688 M 262.738281 0.792969 L 262.738281 233.554688 M 273.640625 0.792969 L 273.640625 233.554688 M 284.546875 0.792969 L 284.546875 233.554688 M 295.453125 0.792969 L 295.453125 233.554688 M 306.355469 0.792969 L 306.355469 233.554688 M 317.261719 0.792969 L 317.261719 233.554688 M 328.167969 0.792969 L 328.167969 233.554688 M 339.074219 0.792969 L 339.074219 233.554688 M 0.613281 0.398438 L 339.46875 0.398438 M 0.613281 18.363281 L 339.46875 18.363281 M 0.613281 36.328125 L 339.46875 36.328125 M 0.613281 54.292969 L 339.46875 54.292969 M 0.613281 72.261719 L 339.46875 72.261719 M 0.613281 90.226562 L 339.46875 90.226562 M 0.613281 108.191406 L 339.46875 108.191406 M 0.613281 126.15625 L 339.46875 126.15625 M 0.613281 144.125 L 339.46875 144.125 M 0.613281 162.089844 L 339.46875 162.089844 M 0.613281 180.054688 L 339.46875 180.054688 M 0.613281 198.019531 L 339.46875 198.019531 M 0.613281 215.988281 L 339.46875 215.988281 M 0.613281 233.953125 L 339.46875 233.953125 " fill-opacity="1" fill-rule="nonzero"/></g><g clip-path="url(#36c118104a)"><path stroke-linecap="butt" transform="matrix(0.748574, 0, 0, 0.748574, 0.613127, -0.000000000000063827)" fill="none" stroke-linejoin="miter" d="M 0.532468 1.059306 L 0.532468 311.999427 M 15.096616 1.059306 L 15.096616 311.999427 M 29.665982 1.059306 L 29.665982 311.999427 M 44.235348 1.059306 L 44.235348 311.999427 M 58.804714 1.059306 L 58.804714 311.999427 M 73.368862 1.059306 L 73.368862 311.999427 M 87.938228 1.059306 L 87.938228 311.999427 M 102.507594 1.059306 L 102.507594 311.999427 M 117.07696 1.059306 L 117.07696 311.999427 M 131.641108 1.059306 L 131.641108 311.999427 M 146.210474 1.059306 L 146.210474 311.999427 M 160.77984 1.059306 L 160.77984 311.999427 M 175.349206 1.059306 L 175.349206 311.999427 M 189.913354 1.059306 L 189.913354 311.999427 M 204.48272 1.059306 L 204.48272 311.999427 M 219.052086 1.059306 L 219.052086 311.999427 M 233.621452 1.059306 L 233.621452 311.999427 M 248.1856 1.059306 L 248.1856 311.999427 M 262.754966 1.059306 L 262.754966 311.999427 M 277.324333 1.059306 L 277.324333 311.999427 M 291.893699 1.059306 L 291.893699 311.999427 M 306.457846 1.059306 L 306.457846 311.999427 M 321.027213 1.059306 L 321.027213 311.999427 M 335.596579 1.059306 L 335.596579 311.999427 M 350.165945 1.059306 L 350.165945 311.999427 M 364.730093 1.059306 L 364.730093 311.999427 M 379.299459 1.059306 L 379.299459 311.999427 M 393.868825 1.059306 L 393.868825 311.999427 M 408.432973 1.059306 L 408.432973 311.999427 M 423.002339 1.059306 L 423.002339 311.999427 M 437.571705 1.059306 L 437.571705 311.999427 M 452.141071 1.059306 L 452.141071 311.999427 M 0.000205804 0.532262 L 452.668115 0.532262 M 0.000205804 24.531014 L 452.668115 24.531014 M 0.000205804 48.529765 L 452.668115 48.529765 M 0.000205804 72.528517 L 452.668115 72.528517 M 0.000205804 96.532487 L 452.668115 96.532487 M 0.000205804 120.531239 L 452.668115 120.531239 M 0.000205804 144.52999 L 452.668115 144.52999 M 0.000205804 168.528742 L 452.668115 168.528742 M 0.000205804 192.532712 L 452.668115 192.532712 M 0.000205804 216.531464 L 452.668115 216.531464 M 0.000205804 240.530215 L 452.668115 240.530215 M 0.000205804 264.528967 L 452.668115 264.528967 M 0.000205804 288.532937 L 452.668115 288.532937 M 0.000205804 312.531689 L 452.668115 312.531689 " stroke="#f6f6fe" stroke-width="1.060751" stroke-opacity="1" stroke-miterlimit="4"/></g><g clip-path="url(#15b58f0080)"><path stroke-linecap="butt" transform="matrix(0.748574, 0, 0, 0.748574, 330.937966, -0.000000000000063827)" fill-opacity="1" fill="#000000" fill-rule="nonzero" stroke-linejoin="miter" d="M 0.531639 1.059306 L 0.531639 310.058236 M 18.696382 1.059306 L 18.696382 310.058236 M 36.861126 1.059306 L 36.861126 310.058236 M 55.025869 1.059306 L 55.025869 310.058236 M 73.190612 1.059306 L 73.190612 310.058236 M 91.355356 1.059306 L 91.355356 310.058236 M 109.520099 1.059306 L 109.520099 310.058236 M 127.684842 1.059306 L 127.684842 310.058236 M 145.849586 1.059306 L 145.849586 310.058236 M 164.014329 1.059306 L 164.014329 310.058236 M 182.179072 1.059306 L 182.179072 310.058236 M 200.343816 1.059306 L 200.343816 310.058236 M 218.508559 1.059306 L 218.508559 310.058236 M 236.673302 1.059306 L 236.673302 310.058236 M 254.838046 1.059306 L 254.838046 310.058236 M 273.002789 1.059306 L 273.002789 310.058236 M 291.167532 1.059306 L 291.167532 310.058236 M 309.332276 1.059306 L 309.332276 310.058236 M 327.497019 1.059306 L 327.497019 310.058236 M 345.661762 1.059306 L 345.661762 310.058236 M 363.826506 1.059306 L 363.826506 310.058236 M 381.991249 1.059306 L 381.991249 310.058236 M 400.155992 1.059306 L 400.155992 310.058236 M 418.320736 1.059306 L 418.320736 310.058236 M 436.485479 1.059306 L 436.485479 310.058236 M 454.650222 1.059306 L 454.650222 310.058236 M 472.814966 1.059306 L 472.814966 310.058236 M 490.979709 1.059306 L 490.979709 310.058236 M 509.144453 1.059306 L 509.144453 310.058236 M 527.309196 1.059306 L 527.309196 310.058236 M 545.473939 1.059306 L 545.473939 310.058236 M 563.638683 1.059306 L 563.638683 310.058236 M -0.000623116 0.532262 L 564.165726 0.532262 M -0.000623116 23.664783 L 564.165726 23.664783 M -0.000623116 46.797305 L 564.165726 46.797305 M -0.000623116 69.929826 L 564.165726 69.929826 M -0.000623116 93.062348 L 564.165726 93.062348 M -0.000623116 116.189651 L 564.165726 116.189651 M -0.000623116 139.322173 L 564.165726 139.322173 M -0.000623116 162.454694 L 564.165726 162.454694 M -0.000623116 185.587215 L 564.165726 185.587215 M -0.000623116 208.719737 L 564.165726 208.719737 M -0.000623116 231.852258 L 564.165726 231.852258 M -0.000623116 254.98478 L 564.165726 254.98478 M -0.000623116 278.117301 L 564.165726 278.117301 M -0.000623116 310.590498 L 564.165726 310.590498 " stroke="#f6f6fe" stroke-width="1.060751" stroke-opacity="1" stroke-miterlimit="4"/></g><g clip-path="url(#d02fde7d41)"><path fill="#000000" d="M 345.785156 233.691406 L 345.785156 465 M 359.382812 233.691406 L 359.382812 465 M 372.980469 233.691406 L 372.980469 465 M 386.578125 233.691406 L 386.578125 465 M 400.175781 233.691406 L 400.175781 465 M 413.773438 233.691406 L 413.773438 465 M 427.371094 233.691406 L 427.371094 465 M 440.96875 233.691406 L 440.96875 465 M 454.566406 233.691406 L 454.566406 465 M 468.164062 233.691406 L 468.164062 465 M 481.761719 233.691406 L 481.761719 465 M 495.359375 233.691406 L 495.359375 465 M 508.957031 233.691406 L 508.957031 465 M 522.554688 233.691406 L 522.554688 465 M 536.152344 233.691406 L 536.152344 465 M 549.75 233.691406 L 549.75 465 M 563.34375 233.691406 L 563.34375 465 M 576.941406 233.691406 L 576.941406 465 M 590.539062 233.691406 L 590.539062 465 M 604.136719 233.691406 L 604.136719 465 M 617.734375 233.691406 L 617.734375 465 M 631.332031 233.691406 L 631.332031 465 M 644.929688 233.691406 L 644.929688 465 M 658.527344 233.691406 L 658.527344 465 M 672.125 233.691406 L 672.125 465 M 685.722656 233.691406 L 685.722656 465 M 699.320312 233.691406 L 699.320312 465 M 712.917969 233.691406 L 712.917969 465 M 726.515625 233.691406 L 726.515625 465 M 740.113281 233.691406 L 740.113281 465 M 753.710938 233.691406 L 753.710938 465 M 767.308594 233.691406 L 767.308594 465 M 345.386719 233.292969 L 767.707031 233.292969 M 345.386719 250.609375 L 767.707031 250.609375 M 345.386719 267.925781 L 767.707031 267.925781 M 345.386719 285.242188 L 767.707031 285.242188 M 345.386719 302.558594 L 767.707031 302.558594 M 345.386719 319.875 L 767.707031 319.875 M 345.386719 337.191406 L 767.707031 337.191406 M 345.386719 354.507812 L 767.707031 354.507812 M 345.386719 371.824219 L 767.707031 371.824219 M 345.386719 389.140625 L 767.707031 389.140625 M 345.386719 406.457031 L 767.707031 406.457031 M 345.386719 423.773438 L 767.707031 423.773438 M 345.386719 441.089844 L 767.707031 441.089844 M 345.386719 465.398438 L 767.707031 465.398438 " fill-opacity="1" fill-rule="nonzero"/></g><g clip-path="url(#75c523bf14)"><path stroke-linecap="butt" transform="matrix(0.748574, 0, 0, 0.748574, 345.386383, 232.897483)" fill="none" stroke-linejoin="miter" d="M 0.53271 1.060581 L 0.53271 310.059511 M 18.697454 1.060581 L 18.697454 310.059511 M 36.862197 1.060581 L 36.862197 310.059511 M 55.02694 1.060581 L 55.02694 310.059511 M 73.191684 1.060581 L 73.191684 310.059511 M 91.356427 1.060581 L 91.356427 310.059511 M 109.52117 1.060581 L 109.52117 310.059511 M 127.685914 1.060581 L 127.685914 310.059511 M 145.850657 1.060581 L 145.850657 310.059511 M 164.015401 1.060581 L 164.015401 310.059511 M 182.180144 1.060581 L 182.180144 310.059511 M 200.344887 1.060581 L 200.344887 310.059511 M 218.509631 1.060581 L 218.509631 310.059511 M 236.674374 1.060581 L 236.674374 310.059511 M 254.839117 1.060581 L 254.839117 310.059511 M 273.003861 1.060581 L 273.003861 310.059511 M 291.163386 1.060581 L 291.163386 310.059511 M 309.328129 1.060581 L 309.328129 310.059511 M 327.492872 1.060581 L 327.492872 310.059511 M 345.657616 1.060581 L 345.657616 310.059511 M 363.822359 1.060581 L 363.822359 310.059511 M 381.987102 1.060581 L 381.987102 310.059511 M 400.151846 1.060581 L 400.151846 310.059511 M 418.316589 1.060581 L 418.316589 310.059511 M 436.481332 1.060581 L 436.481332 310.059511 M 454.646076 1.060581 L 454.646076 310.059511 M 472.810819 1.060581 L 472.810819 310.059511 M 490.975563 1.060581 L 490.975563 310.059511 M 509.140306 1.060581 L 509.140306 310.059511 M 527.305049 1.060581 L 527.305049 310.059511 M 545.469793 1.060581 L 545.469793 310.059511 M 563.634536 1.060581 L 563.634536 310.059511 M 0.000448476 0.528319 L 564.166798 0.528319 M 0.000448476 23.66084 L 564.166798 23.66084 M 0.000448476 46.793362 L 564.166798 46.793362 M 0.000448476 69.925883 L 564.166798 69.925883 M 0.000448476 93.058405 L 564.166798 93.058405 M 0.000448476 116.190926 L 564.166798 116.190926 M 0.000448476 139.323448 L 564.166798 139.323448 M 0.000448476 162.455969 L 564.166798 162.455969 M 0.000448476 185.588491 L 564.166798 185.588491 M 0.000448476 208.721012 L 564.166798 208.721012 M 0.000448476 231.853534 L 564.166798 231.853534 M 0.000448476 254.986055 L 564.166798 254.986055 M 0.000448476 278.118577 L 564.166798 278.118577 M 0.000448476 310.591773 L 564.166798 310.591773 " stroke="#f6f6fe" stroke-width="1.060751" stroke-opacity="1" stroke-miterlimit="4"/></g><g clip-path="url(#7c3d8ee16a)"><path fill="#000000" d="M 1.011719 236.59375 L 1.011719 469.355469 M 11.914062 236.59375 L 11.914062 469.355469 M 22.820312 236.59375 L 22.820312 469.355469 M 33.726562 236.59375 L 33.726562 469.355469 M 44.632812 236.59375 L 44.632812 469.355469 M 55.535156 236.59375 L 55.535156 469.355469 M 66.441406 236.59375 L 66.441406 469.355469 M 77.347656 236.59375 L 77.347656 469.355469 M 88.253906 236.59375 L 88.253906 469.355469 M 99.15625 236.59375 L 99.15625 469.355469 M 110.0625 236.59375 L 110.0625 469.355469 M 120.96875 236.59375 L 120.96875 469.355469 M 131.875 236.59375 L 131.875 469.355469 M 142.777344 236.59375 L 142.777344 469.355469 M 153.683594 236.59375 L 153.683594 469.355469 M 164.589844 236.59375 L 164.589844 469.355469 M 175.496094 236.59375 L 175.496094 469.355469 M 186.398438 236.59375 L 186.398438 469.355469 M 197.304688 236.59375 L 197.304688 469.355469 M 208.210938 236.59375 L 208.210938 469.355469 M 219.117188 236.59375 L 219.117188 469.355469 M 230.019531 236.59375 L 230.019531 469.355469 M 240.925781 236.59375 L 240.925781 469.355469 M 251.832031 236.59375 L 251.832031 469.355469 M 262.738281 236.59375 L 262.738281 469.355469 M 273.640625 236.59375 L 273.640625 469.355469 M 284.546875 236.59375 L 284.546875 469.355469 M 295.453125 236.59375 L 295.453125 469.355469 M 306.355469 236.59375 L 306.355469 469.355469 M 317.261719 236.59375 L 317.261719 469.355469 M 328.167969 236.59375 L 328.167969 469.355469 M 339.074219 236.59375 L 339.074219 469.355469 M 0.613281 236.199219 L 339.46875 236.199219 M 0.613281 254.164062 L 339.46875 254.164062 M 0.613281 272.128906 L 339.46875 272.128906 M 0.613281 290.09375 L 339.46875 290.09375 M 0.613281 308.0625 L 339.46875 308.0625 M 0.613281 326.027344 L 339.46875 326.027344 M 0.613281 343.992188 L 339.46875 343.992188 M 0.613281 361.957031 L 339.46875 361.957031 M 0.613281 379.925781 L 339.46875 379.925781 M 0.613281 397.890625 L 339.46875 397.890625 M 0.613281 415.855469 L 339.46875 415.855469 M 0.613281 433.820312 L 339.46875 433.820312 M 0.613281 451.789062 L 339.46875 451.789062 M 0.613281 469.753906 L 339.46875 469.753906 " fill-opacity="1" fill-rule="nonzero"/></g><g clip-path="url(#f811d8fabb)"><path stroke-linecap="butt" transform="matrix(0.748574, 0, 0, 0.748574, 0.613127, 235.800839)" fill="none" stroke-linejoin="miter" d="M 0.532468 1.059229 L 0.532468 311.99935 M 15.096616 1.059229 L 15.096616 311.99935 M 29.665982 1.059229 L 29.665982 311.99935 M 44.235348 1.059229 L 44.235348 311.99935 M 58.804714 1.059229 L 58.804714 311.99935 M 73.368862 1.059229 L 73.368862 311.99935 M 87.938228 1.059229 L 87.938228 311.99935 M 102.507594 1.059229 L 102.507594 311.99935 M 117.07696 1.059229 L 117.07696 311.99935 M 131.641108 1.059229 L 131.641108 311.99935 M 146.210474 1.059229 L 146.210474 311.99935 M 160.77984 1.059229 L 160.77984 311.99935 M 175.349206 1.059229 L 175.349206 311.99935 M 189.913354 1.059229 L 189.913354 311.99935 M 204.48272 1.059229 L 204.48272 311.99935 M 219.052086 1.059229 L 219.052086 311.99935 M 233.621452 1.059229 L 233.621452 311.99935 M 248.1856 1.059229 L 248.1856 311.99935 M 262.754966 1.059229 L 262.754966 311.99935 M 277.324333 1.059229 L 277.324333 311.99935 M 291.893699 1.059229 L 291.893699 311.99935 M 306.457846 1.059229 L 306.457846 311.99935 M 321.027213 1.059229 L 321.027213 311.99935 M 335.596579 1.059229 L 335.596579 311.99935 M 350.165945 1.059229 L 350.165945 311.99935 M 364.730093 1.059229 L 364.730093 311.99935 M 379.299459 1.059229 L 379.299459 311.99935 M 393.868825 1.059229 L 393.868825 311.99935 M 408.432973 1.059229 L 408.432973 311.99935 M 423.002339 1.059229 L 423.002339 311.99935 M 437.571705 1.059229 L 437.571705 311.99935 M 452.141071 1.059229 L 452.141071 311.99935 M 0.000205804 0.532185 L 452.668115 0.532185 M 0.000205804 24.530937 L 452.668115 24.530937 M 0.000205804 48.529688 L 452.668115 48.529688 M 0.000205804 72.52844 L 452.668115 72.52844 M 0.000205804 96.53241 L 452.668115 96.53241 M 0.000205804 120.531162 L 452.668115 120.531162 M 0.000205804 144.529913 L 452.668115 144.529913 M 0.000205804 168.528665 L 452.668115 168.528665 M 0.000205804 192.532635 L 452.668115 192.532635 M 0.000205804 216.531387 L 452.668115 216.531387 M 0.000205804 240.530138 L 452.668115 240.530138 M 0.000205804 264.52889 L 452.668115 264.52889 M 0.000205804 288.53286 L 452.668115 288.53286 M 0.000205804 312.531612 L 452.668115 312.531612 " stroke="#f6f6fe" stroke-width="1.060751" stroke-opacity="1" stroke-miterlimit="4"/></g></svg>